<svg width="26" height="26" viewBox="0 0 26 26" fill="none" xmlns="http://www.w3.org/2000/svg">
<path d="M22.2308 13C22.2308 18.098 18.098 22.2308 13 22.2308M22.2308 13C22.2308 7.90199 18.098 3.76923 13 3.76923M22.2308 13H25M13 22.2308C7.90199 22.2308 3.76923 18.098 3.76923 13M13 22.2308V25M3.76923 13C3.76923 7.90199 7.90199 3.76923 13 3.76923M3.76923 13H1M13 3.76923V1M4.51472 4.51472L6.47287 6.47287M19.5271 19.5271L21.4853 21.4853M21.4853 4.51472L19.5271 6.47287M6.47288 19.5271L4.51474 21.4853" stroke="#276AEE" stroke-linecap="round"/>
</svg>
